<svg width="20" height="19" viewBox="0 0 20 19" fill="none" xmlns="http://www.w3.org/2000/svg">
<g clip-path="url(#clip0_126_783)">
<path d="M16.1581 5.54166H3.49141C2.61696 5.54166 1.90808 6.25055 1.90808 7.125V15.0417C1.90808 15.9161 2.61696 16.625 3.49141 16.625H16.1581C17.0325 16.625 17.7414 15.9161 17.7414 15.0417V7.125C17.7414 6.25055 17.0325 5.54166 16.1581 5.54166Z" stroke="black" stroke-width="2" stroke-linecap="round" stroke-linejoin="round"/>
<path d="M12.9914 16.625V3.95833C12.9914 3.53841 12.8246 3.13568 12.5277 2.83875C12.2307 2.54181 11.828 2.375 11.4081 2.375H8.24141C7.82149 2.375 7.41876 2.54181 7.12183 2.83875C6.8249 3.13568 6.65808 3.53841 6.65808 3.95833V16.625" stroke="black" stroke-width="2" stroke-linecap="round" stroke-linejoin="round"/>
</g>
<defs>
<clipPath id="clip0_126_783">
<rect width="19" height="19" fill="white" transform="translate(0.324707)"/>
</clipPath>
</defs>
</svg>
