<svg width="19" height="19" viewBox="0 0 19 19" fill="none" xmlns="http://www.w3.org/2000/svg">
<g clip-path="url(#clip0_126_788)">
<path d="M9.32471 17C13.4668 17 16.8247 13.6421 16.8247 9.5C16.8247 5.35786 13.4668 2 9.32471 2C5.18257 2 1.82471 5.35786 1.82471 9.5C1.82471 13.6421 5.18257 17 9.32471 17Z" stroke="black" stroke-width="2" stroke-linecap="round" stroke-linejoin="round"/>
<path d="M1.82471 9.5H16.8247" stroke="black" stroke-width="2" stroke-linecap="round" stroke-linejoin="round"/>
<path d="M9.32471 2C11.2007 4.05376 12.2668 6.71903 12.3247 9.5C12.2668 12.281 11.2007 14.9462 9.32471 17C7.44875 14.9462 6.38264 12.281 6.32471 9.5C6.38264 6.71903 7.44875 4.05376 9.32471 2Z" stroke="black" stroke-width="2" stroke-linecap="round" stroke-linejoin="round"/>
</g>
<defs>
<clipPath id="clip0_126_788">
<rect width="18" height="18" fill="white" transform="translate(0.324707 0.5)"/>
</clipPath>
</defs>
</svg>
