<svg width="19" height="19" viewBox="0 0 19 19" fill="none" xmlns="http://www.w3.org/2000/svg">
<g clip-path="url(#clip0_126_794)">
<path d="M16.0747 8C16.0747 13.25 9.32471 17.75 9.32471 17.75C9.32471 17.75 2.57471 13.25 2.57471 8C2.57471 6.20979 3.28587 4.4929 4.55174 3.22703C5.81761 1.96116 7.5345 1.25 9.32471 1.25C11.1149 1.25 12.8318 1.96116 14.0977 3.22703C15.3635 4.4929 16.0747 6.20979 16.0747 8Z" stroke="black" stroke-width="2" stroke-linecap="round" stroke-linejoin="round"/>
<path d="M9.32471 10.25C10.5673 10.25 11.5747 9.24264 11.5747 8C11.5747 6.75736 10.5673 5.75 9.32471 5.75C8.08207 5.75 7.07471 6.75736 7.07471 8C7.07471 9.24264 8.08207 10.25 9.32471 10.25Z" stroke="black" stroke-width="2" stroke-linecap="round" stroke-linejoin="round"/>
</g>
<defs>
<clipPath id="clip0_126_794">
<rect width="18" height="18" fill="white" transform="translate(0.324707 0.5)"/>
</clipPath>
</defs>
</svg>
