<svg width="19" height="19" viewBox="0 0 19 19" fill="none" xmlns="http://www.w3.org/2000/svg">
<g clip-path="url(#clip0_126_776)">
<path d="M13.0747 16.25V14.75C13.0747 13.9544 12.7586 13.1913 12.196 12.6287C11.6334 12.0661 10.8704 11.75 10.0747 11.75H4.07471C3.27906 11.75 2.516 12.0661 1.95339 12.6287C1.39078 13.1913 1.07471 13.9544 1.07471 14.75V16.25" stroke="black" stroke-width="2" stroke-linecap="round" stroke-linejoin="round"/>
<path d="M7.07471 8.75C8.73156 8.75 10.0747 7.40685 10.0747 5.75C10.0747 4.09315 8.73156 2.75 7.07471 2.75C5.41785 2.75 4.07471 4.09315 4.07471 5.75C4.07471 7.40685 5.41785 8.75 7.07471 8.75Z" stroke="black" stroke-width="2" stroke-linecap="round" stroke-linejoin="round"/>
<path d="M17.5747 16.25V14.75C17.5742 14.0853 17.353 13.4396 16.9457 12.9142C16.5385 12.3889 15.9683 12.0137 15.3247 11.8475" stroke="black" stroke-width="2" stroke-linecap="round" stroke-linejoin="round"/>
<path d="M12.3247 2.8475C12.97 3.01273 13.542 3.38803 13.9504 3.91424C14.3589 4.44044 14.5806 5.08763 14.5806 5.75375C14.5806 6.41988 14.3589 7.06706 13.9504 7.59327C13.542 8.11948 12.97 8.49478 12.3247 8.66" stroke="black" stroke-width="2" stroke-linecap="round" stroke-linejoin="round"/>
</g>
<defs>
<clipPath id="clip0_126_776">
<rect width="18" height="18" fill="white" transform="translate(0.324707 0.5)"/>
</clipPath>
</defs>
</svg>
