<svg width="142" height="40" viewBox="0 0 142 40" fill="none" xmlns="http://www.w3.org/2000/svg">
<path d="M41.21 21.99V24H37.07V3H41.33V8.43V11.01C41.77 10.35 42.41 9.78 43.25 9.3C44.11 8.8 45.1 8.55 46.22 8.55C48.18 8.55 49.75 9.28 50.93 10.74C52.11 12.18 52.7 14.1 52.7 16.5C52.7 18.88 52.1 20.81 50.9 22.29C49.72 23.75 48.15 24.48 46.19 24.48C45.07 24.48 44.08 24.25 43.22 23.79C42.36 23.31 41.69 22.71 41.21 21.99ZM44.72 21.24C47.06 21.24 48.23 19.66 48.23 16.5C48.23 13.34 47.06 11.76 44.72 11.76C43.62 11.76 42.75 12.17 42.11 12.99C41.47 13.81 41.15 14.98 41.15 16.5C41.15 18.02 41.47 19.19 42.11 20.01C42.75 20.83 43.62 21.24 44.72 21.24ZM56.0886 16.47C56.0886 14.17 56.8086 12.28 58.2486 10.8C59.6886 9.3 61.4986 8.55 63.6786 8.55C65.9386 8.55 67.7186 9.29 69.0186 10.77C70.3186 12.25 70.9686 14.16 70.9686 16.5C70.9686 16.96 70.9586 17.3 70.9386 17.52H60.3486C60.4086 18.74 60.7386 19.67 61.3386 20.31C61.9386 20.93 62.7286 21.24 63.7086 21.24C65.2686 21.24 66.4286 20.37 67.1886 18.63L70.9986 20.1C70.4786 21.3 69.6386 22.34 68.4786 23.22C67.3386 24.06 65.7486 24.48 63.7086 24.48C61.4086 24.48 59.5586 23.76 58.1586 22.32C56.7786 20.86 56.0886 18.91 56.0886 16.47ZM60.4986 14.52H66.7386C66.5186 12.58 65.4986 11.61 63.6786 11.61C62.8186 11.61 62.1086 11.86 61.5486 12.36C60.9886 12.86 60.6386 13.58 60.4986 14.52ZM74.428 16.5C74.428 14.1 75.018 12.18 76.198 10.74C77.378 9.28 78.958 8.55 80.938 8.55C82.018 8.55 82.978 8.79 83.818 9.27C84.678 9.73 85.338 10.31 85.798 11.01V8.43V3H90.058V24H85.918V21.99C85.478 22.65 84.808 23.23 83.908 23.73C83.028 24.23 82.038 24.48 80.938 24.48C78.958 24.48 77.378 23.75 76.198 22.29C75.018 20.81 74.428 18.88 74.428 16.5ZM85.018 20.01C85.658 19.19 85.978 18.02 85.978 16.5C85.978 14.98 85.658 13.81 85.018 12.99C84.398 12.17 83.538 11.76 82.438 11.76C80.078 11.76 78.898 13.34 78.898 16.5C78.898 19.66 80.078 21.24 82.438 21.24C83.538 21.24 84.398 20.83 85.018 20.01ZM95.3966 24V9H99.5666V12.42C99.9466 11.48 100.557 10.62 101.397 9.84C102.257 9.08 103.467 8.7 105.027 8.7C105.387 8.7 105.617 8.71 105.717 8.73V13.11C105.137 13.05 104.587 13.02 104.067 13.02C102.487 13.02 101.357 13.39 100.677 14.13C99.9966 14.85 99.6566 16.13 99.6566 17.97V24H95.3966ZM107.911 16.47C107.911 14.17 108.631 12.28 110.071 10.8C111.511 9.3 113.321 8.55 115.501 8.55C117.761 8.55 119.541 9.29 120.841 10.77C122.141 12.25 122.791 14.16 122.791 16.5C122.791 16.96 122.781 17.3 122.761 17.52H112.171C112.231 18.74 112.561 19.67 113.161 20.31C113.761 20.93 114.551 21.24 115.531 21.24C117.091 21.24 118.251 20.37 119.011 18.63L122.821 20.1C122.301 21.3 121.461 22.34 120.301 23.22C119.161 24.06 117.571 24.48 115.531 24.48C113.231 24.48 111.381 23.76 109.981 22.32C108.601 20.86 107.911 18.91 107.911 16.47ZM112.321 14.52H118.561C118.341 12.58 117.321 11.61 115.501 11.61C114.641 11.61 113.931 11.86 113.371 12.36C112.811 12.86 112.461 13.58 112.321 14.52ZM130.613 24L124.853 9H129.323L131.393 15.15L132.053 17.1C132.413 18.2 132.783 19.29 133.163 20.37C133.903 18.11 134.463 16.37 134.843 15.15L136.823 9H141.173L135.713 24H130.613Z" fill="white"/>
<path d="M14 26.8101C20.6274 26.8101 26 21.4375 26 14.8101C26 8.1827 20.6274 2.81012 14 2.81012C7.37258 2.81012 2 8.1827 2 14.8101C2 21.4375 7.37258 26.8101 14 26.8101Z" fill="#FBDD74" stroke="white" stroke-width="3" stroke-linecap="round" stroke-linejoin="round"/>
<path d="M13.75 5L9 15.2222L13.75 25L18.5 15.2222L13.75 5Z" fill="#DD99DD" stroke="white" stroke-width="2"/>
</svg>
